<svg width="21" height="23" viewBox="0 0 21 23" fill="none" xmlns="http://www.w3.org/2000/svg">
<path fill-rule="evenodd" clip-rule="evenodd" d="M21 0L5.25 3.93824V16.467C4.7352 16.1692 4.1375 15.9987 3.5 15.9987C1.567 15.9987 0 17.566 0 19.4993C0 21.4327 1.567 23 3.5 23C5.35953 23 6.88036 21.5496 6.99328 19.7181H7V5.30486L19.25 2.24178V12.9664C18.7352 12.6685 18.1375 12.498 17.5 12.498C15.567 12.498 14 14.0653 14 15.9987C14 17.932 15.567 19.4993 17.5 19.4993C19.3595 19.4993 20.8804 18.0489 20.9933 16.2175H21V0ZM19.25 15.9987C19.25 15.032 18.4665 14.2484 17.5 14.2484C16.5335 14.2484 15.75 15.032 15.75 15.9987C15.75 16.9654 16.5335 17.749 17.5 17.749C18.4665 17.749 19.25 16.9654 19.25 15.9987ZM5.25 19.4993C5.25 18.5327 4.4665 17.749 3.5 17.749C2.5335 17.749 1.75 18.5327 1.75 19.4993C1.75 20.466 2.5335 21.2497 3.5 21.2497C4.4665 21.2497 5.25 20.466 5.25 19.4993Z" fill="#747474"/>
</svg>
