<svg width="24" height="22" viewBox="0 0 24 22" fill="none" xmlns="http://www.w3.org/2000/svg">
<path d="M23.776 17.083C20.854 15.146 20.922 8.655 20.983 2.927C20.991 2.103 21 1.29 21 0.5C21 0.224 20.776 0 20.5 0H2.5C2.483 0 2.469 0.00799999 2.453 0.00999999C2.419 0.013 2.386 0.02 2.353 0.03C2.323 0.039 2.295 0.0500001 2.268 0.0650001C2.24 0.0800001 2.215 0.097 2.19 0.117C2.163 0.139 2.14 0.163 2.118 0.19C2.108 0.203 2.094 0.21 2.084 0.223L0.084 3.223C0.029 3.305 0 3.401 0 3.5V21.499C0 21.565 0.013 21.631 0.039 21.692C0.053 21.725 0.077 21.75 0.097 21.779C0.114 21.804 0.124 21.831 0.146 21.853C0.163 21.869 0.184 21.876 0.202 21.89C0.236 21.916 0.269 21.944 0.309 21.96C0.37 21.987 0.435 22 0.5 22H17.5C17.599 22 17.695 21.971 17.777 21.916L20.777 19.916C20.791 19.907 20.798 19.893 20.81 19.883C20.837 19.861 20.86 19.838 20.882 19.81C20.902 19.785 20.919 19.761 20.934 19.733C20.949 19.705 20.96 19.677 20.97 19.646C20.98 19.613 20.987 19.581 20.99 19.547C20.992 19.531 21 19.517 21 19.5V18H23.5C23.721 18 23.915 17.855 23.978 17.644C24.042 17.433 23.96 17.205 23.776 17.083ZM2 2.151V19.293L1 20.293V3.651L2 2.151ZM17.349 21H1.707L2.707 20H18.849L17.349 21ZM20 19H3V12.187C3.625 14.763 4.625 16.857 6.224 17.917C6.306 17.971 6.402 18 6.5 18H20V19ZM6.656 17C3.502 14.734 3.025 7.368 3.002 1H19.996C19.993 1.631 19.989 2.267 19.983 2.917C19.924 8.481 19.864 14.213 22.205 17H6.656Z" fill="#747474"/>
</svg>
